<svg id="Camada_1" data-name="Camada 1" xmlns="http://www.w3.org/2000/svg" viewBox="0 0 157.07 188.21"><defs><style>.cls-1{fill:none;stroke:#494949;stroke-width:6px;}.cls-2{fill:#8762d1;}</style></defs><title>logo_ninja2</title><g id="novo_vetorizado"><path class="cls-1" d="M184.42,115.54a43.52,43.52,0,0,1-87,0v-53S93.22,29.64,140.9,29.64,184.42,63.3,184.42,63.3Z" transform="translate(-58.37 -21.19)"/><path class="cls-1" d="M107,39.33,79,24.64a3.91,3.91,0,0,0-5.45,2.05L67.6,41.94a3.42,3.42,0,0,0,3,4.65l29.51,1.59" transform="translate(-58.37 -21.19)"/><path class="cls-1" d="M97.28,67.93,78.18,85a3.32,3.32,0,0,1-4.93-.57L61.87,68.21a2.76,2.76,0,0,1,1.25-4.16L99.48,49.64" transform="translate(-58.37 -21.19)"/><line class="cls-1" x1="38.91" y1="52.79" x2="126.05" y2="52.79"/><line class="cls-1" x1="38.91" y1="88.77" x2="126.05" y2="88.77"/><path class="cls-1" d="M116.57,151.26v25.06a6.76,6.76,0,0,0,6.76,6.76h28.36L164.48,170a3.42,3.42,0,0,0,1-2.48l-.38-16.16" transform="translate(-58.37 -21.19)"/><path class="cls-1" d="M116.57,165l-29.94,6.33a29.58,29.58,0,0,0-17.8,16.81,17.51,17.51,0,0,0-1.27,6.15l-.19,6.67c-.07,1.55,2.09,5.49,4.23,5.49h138a2.88,2.88,0,0,0,2.88-2.88V194.6c-1.76-18.09-12.78-20.17-24-24l-23.13-8" transform="translate(-58.37 -21.19)"/><line class="cls-1" x1="69.76" y1="185.78" x2="93.32" y2="161.9"/><line class="cls-1" x1="107.12" y1="185.22" x2="133.91" y2="150.67"/><path class="cls-1" d="M86.63,171.28,62.66,132a2.44,2.44,0,0,1,.85-3.38l12.4-7.26a3.05,3.05,0,0,1,4.19,1.11L106,167.18" transform="translate(-58.37 -21.19)"/><ellipse class="cls-2" cx="67.13" cy="70.68" rx="8.92" ry="6"/><ellipse class="cls-2" cx="98.2" cy="70.68" rx="8.92" ry="6"/></g></svg>